<svg xmlns="http://www.w3.org/2000/svg" version="1.1" xmlns:xlink="http://www.w3.org/1999/xlink" xmlns:svgjs="http://svgjs.dev/svgjs" width="1440" height="560" preserveAspectRatio="none" viewBox="0 0 1440 560"><g mask="url(&quot;#SvgjsMask1000&quot;)" fill="none"><rect width="1440" height="560" x="0" y="0" fill="#0e2a47"></rect><path d="M0,595.057C109.639,593.645,164.831,458.968,260.279,405.002C364.142,346.278,510.9,361.549,582.201,265.882C655.301,167.801,665.5,26.415,629.595,-90.522C595.233,-202.434,466.739,-249.791,395.37,-342.59C317.671,-443.619,306.697,-599.984,193.195,-657.962C77.547,-717.036,-70.054,-694.742,-188.108,-640.637C-299.775,-589.459,-346.991,-463.151,-429.811,-372.434C-515.467,-278.611,-647.119,-220.026,-683.29,-98.242C-720.889,28.348,-709.026,183.467,-625.236,285.536C-542.758,386.007,-381.117,354.091,-264.622,411.761C-166.471,460.351,-109.511,596.467,0,595.057" fill="#0b2239"></path><path d="M1440 1139.742C1558.99 1171.933 1700.316 1192.955 1801.933 1123.179 1903.4569999999999 1053.467 1908.896 908.658 1947.061 791.567 1980.859 687.872 2029.463 585.422 2012.315 477.714 1995.2849999999999 370.746 1927.065 281.181 1853.192 201.96699999999998 1781.378 124.96100000000001 1697.597 56.127999999999986 1595.422 30.682000000000016 1495.344 5.758000000000038 1395.917 47.033000000000015 1293.979 62.69900000000001 1174.275 81.09500000000003 1024.261 39.51099999999997 944.567 130.70499999999998 864.929 221.83499999999998 940.077 365.861 924.2 485.839 908.575 603.909 794.45 724.282 852.236 828.423 911.129 934.559 1078.0149999999999 899.54 1185.279 956.354 1279.645 1006.337 1336.92 1111.855 1440 1139.742" fill="#113255"></path></g><defs><mask id="SvgjsMask1000"><rect width="1440" height="560" fill="#ffffff"></rect></mask></defs></svg>